<svg width="123" height="88" viewBox="0 0 123 88" fill="none" xmlns="http://www.w3.org/2000/svg">
<path d="M119.831 13.9855C119.13 11.35 117.764 8.94736 115.868 7.01677C113.972 5.08618 111.612 3.69504 109.023 2.98189C99.5471 0.350586 61.4073 0.350586 61.4073 0.350586C61.4073 0.350586 23.2675 0.430322 13.7913 3.06162C11.2027 3.77478 8.84286 5.16592 6.94666 7.09651C5.05047 9.0271 3.68411 11.4298 2.98366 14.0653C0.117305 31.2086 -0.99478 57.3302 3.06198 73.7878C3.76243 76.4233 5.12878 78.826 7.02498 80.7566C8.92117 82.6872 11.281 84.0783 13.8696 84.7915C23.3458 87.4228 61.4856 87.4228 61.4856 87.4228C61.4856 87.4228 99.6254 87.4228 109.102 84.7915C111.69 84.0783 114.05 82.6872 115.946 80.7566C117.842 78.826 119.209 76.4233 119.909 73.7878C122.932 56.6206 123.864 30.5149 119.831 13.9855Z" fill="#FF0000"/>
<path d="M46.0723 61.9384L77.9279 43.3559L46.0723 24.7734V61.9384Z" fill="white"/>
</svg>
