<svg display="none"
  xmlns="http://www.w3.org/2000/svg">

  <symbol id="twitter" viewBox="0 0 45 45">
    <rect width="45" height="45" rx="5" fill="#111110"/>
    <path d="M34 16.207C33.193 16.5646 32.326 16.8063 31.4146 16.9155C32.355 16.3528 33.0586 15.4671 33.394 14.4238C32.5104 14.9486 31.5434 15.318 30.535 15.516C29.8569 14.7919 28.9587 14.312 27.9799 14.1507C27.001 13.9895 25.9963 14.1559 25.1218 14.6241C24.2472 15.0924 23.5517 15.8362 23.1432 16.7403C22.7348 17.6443 22.6362 18.6579 22.8628 19.6237C21.0725 19.5338 19.3211 19.0685 17.7223 18.2579C16.1235 17.4473 14.7129 16.3096 13.5823 14.9187C13.1957 15.5856 12.9734 16.3588 12.9734 17.1823C12.9729 17.9236 13.1555 18.6535 13.5048 19.3074C13.8542 19.9612 14.3595 20.5187 14.976 20.9304C14.261 20.9077 13.5618 20.7145 12.9366 20.3669V20.4249C12.9366 21.4647 13.2962 22.4724 13.9546 23.2771C14.6129 24.0819 15.5294 24.6341 16.5485 24.84C15.8853 25.0195 15.1899 25.0459 14.515 24.9173C14.8025 25.8119 15.3626 26.5942 16.1168 27.1547C16.8711 27.7152 17.7817 28.0258 18.7213 28.043C17.1263 29.2951 15.1566 29.9742 13.129 29.9712C12.7698 29.9713 12.4109 29.9504 12.0542 29.9084C14.1124 31.2318 16.5083 31.9341 18.9552 31.9313C27.2382 31.9313 31.7664 25.071 31.7664 19.1211C31.7664 18.9278 31.7615 18.7325 31.7528 18.5392C32.6336 17.9023 33.3939 17.1135 33.9981 16.2099L34 16.207V16.207Z" fill="white"/>
  </symbol>

  <symbol id="telegram" viewBox="0 0 45 45">
    <rect width="45" height="45" rx="5" fill="#111110"/>
    <path d="M31.5825 14.1118L12.9806 21.0358C11.7111 21.5279 11.7184 22.2115 12.7477 22.5164L17.5235 23.9544L28.5735 17.2249C29.096 16.918 29.5734 17.0831 29.181 17.4193L20.2283 25.2183H20.2262L20.2283 25.2193L19.8989 29.971C20.3815 29.971 20.5945 29.7573 20.8652 29.5052L23.1849 27.3278L28.0101 30.768C28.8998 31.241 29.5387 30.9979 29.7601 29.973L32.9276 15.564C33.2518 14.3093 32.4313 13.7411 31.5825 14.1118V14.1118Z" fill="white"/>
  </symbol>

  <symbol id="media" viewBox="0 0 45 45">
    <rect width="45" height="45" rx="5" fill="#111110"/>
    <path d="M15.2534 17.06C15.265 16.9459 15.2495 16.8306 15.2079 16.7235C15.1663 16.6164 15.0999 16.5204 15.014 16.4431L13.2394 14.3178V14H18.7475L23.0054 23.2859L26.7484 14H32V14.3178L30.4828 15.7625C30.4186 15.8115 30.369 15.8768 30.3393 15.9514C30.3097 16.026 30.3012 16.1072 30.3147 16.1862V26.8119C30.3012 26.8909 30.3097 26.9721 30.3393 27.0467C30.369 27.1214 30.4186 27.1866 30.4828 27.2356L31.9648 28.6812V29H24.5131V28.6822L26.0482 27.2009C26.1993 27.0509 26.1993 27.0069 26.1993 26.7781V18.1888L21.9319 28.9644H21.3562L16.3877 18.1888V25.4113C16.3468 25.7141 16.4485 26.0206 16.6632 26.24L18.6591 28.6475V28.9644H13V28.6475L14.995 26.24C15.1006 26.1313 15.1789 25.9998 15.2238 25.8559C15.2686 25.712 15.2788 25.5597 15.2534 25.4113V17.06Z" fill="white"/>
  </symbol>

  <symbol id="youtube" viewBox="0 0 45 45">
    <rect width="45" height="45" rx="5" fill="#111110"/>
    <path d="M17 29.1683C17 29.9595 17.8753 30.4373 18.5408 30.0095L29.6915 22.8412C30.3038 22.4475 30.3038 21.5525 29.6915 21.1588L18.541 13.9905C17.8754 13.5627 17.0002 14.0405 17.0002 14.8317L17 29.1683Z" fill="white"/>
  </symbol>

  <symbol id="aim" viewBox="0 0 35 35">
    <g opacity="0.4">
      <path d="M31.9197 16.1723H27.8224C27.2424 11.2636 23.3496 7.37085 18.441 6.7908V2.69353C18.441 2.546 18.3202 2.42529 18.1727 2.42529H16.161C16.0134 2.42529 15.8927 2.546 15.8927 2.69353V6.7908C10.9841 7.37085 7.09131 11.2636 6.51126 16.1723H2.41399C2.26646 16.1723 2.14575 16.293 2.14575 16.4405V18.4523C2.14575 18.5998 2.26646 18.7205 2.41399 18.7205H6.51126C7.09131 23.6292 10.9841 27.5219 15.8927 28.102V32.1992C15.8927 32.3468 16.0134 32.4675 16.161 32.4675H18.1727C18.3202 32.4675 18.441 32.3468 18.441 32.1992V28.102C23.3496 27.5219 27.2424 23.6292 27.8224 18.7205H31.9197C32.0672 18.7205 32.1879 18.5998 32.1879 18.4523V16.4405C32.1879 16.293 32.0672 16.1723 31.9197 16.1723ZM17.1668 25.6275C12.6471 25.6275 8.98571 21.9661 8.98571 17.4464C8.98571 12.9266 12.6471 9.26525 17.1668 9.26525C21.6866 9.26525 25.348 12.9266 25.348 17.4464C25.348 21.9661 21.6866 25.6275 17.1668 25.6275Z" fill="#BDBBBA"/>
      <path d="M17.1671 13.4229C16.0908 13.4229 15.0849 13.8386 14.3238 14.6031C13.5627 15.3642 13.1436 16.3701 13.1436 17.4464C13.1436 18.5226 13.5627 19.5285 14.3238 20.2896C15.0849 21.0474 16.0941 21.4699 17.1671 21.4699C18.24 21.4699 19.2492 21.0507 20.0103 20.2896C20.7681 19.5285 21.1906 18.5193 21.1906 17.4464C21.1906 16.3734 20.7715 15.3642 20.0103 14.6031C19.2492 13.8386 18.2433 13.4229 17.1671 13.4229Z" fill="#BDBBBA"/>
    </g>
  </symbol>

</svg>